<svg xmlns="http://www.w3.org/2000/svg" xmlns:xlink="http://www.w3.org/1999/xlink" width="400" zoomAndPan="magnify" viewBox="0 0 300 187.499995" height="250" preserveAspectRatio="xMidYMid meet" version="1.0"><defs><g/><clipPath id="67862bf4bb"><path d="M 0.398438 0 L 299.601562 0 L 299.601562 187 L 0.398438 187 Z M 0.398438 0 " clip-rule="nonzero"/></clipPath><clipPath id="10c0dc0fec"><rect x="0" width="225" y="0" height="125"/></clipPath></defs><g clip-path="url(#67862bf4bb)"><path fill="#ffffff" d="M 0.398438 0 L 299.601562 0 L 299.601562 187 L 0.398438 187 Z M 0.398438 0 " fill-opacity="1" fill-rule="nonzero"/><path fill="#e8cdcc" d="M 0.398438 0 L 299.601562 0 L 299.601562 187 L 0.398438 187 Z M 0.398438 0 " fill-opacity="1" fill-rule="nonzero"/></g><g transform="matrix(1, 0, 0, 1, 37, 31)"><g clip-path="url(#10c0dc0fec)"><g fill="#900603" fill-opacity="1"><g transform="translate(0.437863, 97.55294)"><g><path d="M 65.4375 -35.75 L 65.4375 0 L 53.109375 0 L 53.109375 -4.9375 C 47.609375 -1.007812 41.445312 0.953125 34.625 0.953125 C 25.832031 0.953125 18.335938 -2.144531 12.140625 -8.34375 C 5.941406 -14.539062 2.84375 -22.035156 2.84375 -30.828125 C 2.84375 -39.609375 5.941406 -47.097656 12.140625 -53.296875 C 18.335938 -59.492188 25.832031 -62.59375 34.625 -62.59375 C 42.457031 -62.59375 49.347656 -60.066406 55.296875 -55.015625 L 45.8125 -45.625 C 42.457031 -48.082031 38.726562 -49.3125 34.625 -49.3125 C 29.4375 -49.3125 25.101562 -47.507812 21.625 -43.90625 C 17.957031 -40.238281 16.125 -35.878906 16.125 -30.828125 C 16.125 -25.765625 17.957031 -21.398438 21.625 -17.734375 C 25.226562 -14.128906 29.5625 -12.328125 34.625 -12.328125 C 39.613281 -12.328125 43.972656 -14.128906 47.703125 -17.734375 C 47.828125 -17.859375 47.953125 -17.984375 48.078125 -18.109375 L 48.5625 -18.59375 C 49 -19.09375 49.410156 -19.566406 49.796875 -20.015625 C 50.867188 -21.335938 51.59375 -22.472656 51.96875 -23.421875 L 37.75 -23.421875 L 37.75 -35.75 Z M 53.015625 -23.421875 L 53.109375 -23.328125 L 53.109375 -23.421875 Z M 53.015625 -23.421875 "/></g></g></g><g fill="#900603" fill-opacity="1"><g transform="translate(58.010219, 97.55294)"><g><path d="M 17.640625 -13.28125 L 47.328125 -13.28125 L 47.328125 0 L 2.84375 0 L 2.84375 -61.65625 L 17.640625 -61.65625 Z M 17.640625 -13.28125 "/></g></g></g><g fill="#900603" fill-opacity="1"><g transform="translate(95.759481, 97.55294)"><g><path d="M 16.125 0 L 2.84375 0 L 2.84375 -13.28125 L 16.125 -13.28125 Z M 16.125 0 "/></g></g></g><g fill="#900603" fill-opacity="1"><g transform="translate(104.011214, 97.55294)"><g><path d="M 33.203125 -61.359375 C 41.984375 -61.359375 49.472656 -58.257812 55.671875 -52.0625 C 61.867188 -45.875 64.96875 -38.382812 64.96875 -29.59375 C 64.96875 -20.800781 61.867188 -13.304688 55.671875 -7.109375 C 49.472656 -0.910156 41.984375 2.1875 33.203125 2.1875 C 24.410156 2.1875 16.914062 -0.910156 10.71875 -7.109375 C 4.519531 -13.304688 1.421875 -20.800781 1.421875 -29.59375 C 1.421875 -38.382812 4.519531 -45.875 10.71875 -52.0625 C 16.914062 -58.257812 24.410156 -61.359375 33.203125 -61.359375 Z M 46.28125 -16.5 C 49.882812 -20.101562 51.6875 -24.46875 51.6875 -29.59375 C 51.6875 -34.71875 49.882812 -39.082031 46.28125 -42.6875 C 42.675781 -46.28125 38.316406 -48.078125 33.203125 -48.078125 C 28.078125 -48.078125 23.710938 -46.28125 20.109375 -42.6875 C 16.503906 -39.082031 14.703125 -34.71875 14.703125 -29.59375 C 14.703125 -24.46875 16.503906 -20.101562 20.109375 -16.5 C 23.835938 -12.894531 28.203125 -11.09375 33.203125 -11.09375 C 38.191406 -11.09375 42.550781 -12.894531 46.28125 -16.5 Z M 46.28125 -16.5 "/></g></g></g><g fill="#900603" fill-opacity="1"><g transform="translate(159.686627, 97.55294)"><g><path d="M 54.34375 -40.59375 C 54.34375 -36.613281 53.332031 -32.914062 51.3125 -29.5 C 48.84375 -25.445312 45.363281 -22.632812 40.875 -21.0625 L 54.15625 0 L 37.5625 0 L 24.65625 -19.625 L 17.640625 -19.625 L 17.640625 0 L 2.84375 0 L 2.84375 -61.65625 L 32.34375 -61.65625 C 39.363281 -61.65625 44.925781 -59.34375 49.03125 -54.71875 C 52.570312 -50.675781 54.34375 -45.96875 54.34375 -40.59375 Z M 17.640625 -48.375 L 17.640625 -32.90625 L 32.25 -32.90625 C 34.269531 -32.90625 35.878906 -33.191406 37.078125 -33.765625 C 38.085938 -34.335938 38.816406 -34.875 39.265625 -35.375 C 39.898438 -36.132812 40.375 -37.019531 40.6875 -38.03125 C 40.9375 -38.914062 41.0625 -39.769531 41.0625 -40.59375 C 41.0625 -41.476562 40.9375 -42.363281 40.6875 -43.25 C 40.3125 -44.257812 39.773438 -45.144531 39.078125 -45.90625 C 37.679688 -47.550781 35.4375 -48.375 32.34375 -48.375 Z M 17.640625 -48.375 "/></g></g></g><g fill="#900603" fill-opacity="1"><g transform="translate(206.161835, 97.55294)"><g><path d="M 1.421875 -61.65625 L 16.21875 -61.65625 L 16.21875 0 L 1.421875 0 Z M 1.421875 -61.65625 "/></g></g></g></g></g></svg>